<svg width="46" height="46" viewBox="0 0 46 46" fill="none" xmlns="http://www.w3.org/2000/svg">
<path d="M32.3916 17.6333L30.8583 19.1666C34.1166 20.8916 35.65 23.575 36.225 24.9166C34.8833 26.6416 30.8583 30.8583 22.8083 30.8583C21.4666 30.8583 20.5083 30.6666 19.3583 30.475L17.825 32.0083C19.3583 32.5833 21.0833 32.775 22.8083 32.775C33.7333 32.775 38.3333 25.1083 38.3333 25.1083C38.3333 25.1083 37.1833 20.5083 32.3916 17.6333Z" fill="#969696"/>
<path d="M30.6666 21.275C30.6666 20.7 30.6666 20.125 30.4749 19.7417L21.2749 28.75C21.8499 28.75 22.4249 28.9417 22.9999 28.9417C27.2166 28.9417 30.6666 25.4917 30.6666 21.275Z" fill="#969696"/>
<path d="M36.9917 7.66675L28.5584 16.1001C27.0251 15.7167 25.1084 15.3334 23.0001 15.3334C10.1584 15.3334 7.66675 25.1084 7.66675 25.1084C7.66675 25.1084 9.58341 28.5584 13.9917 30.8584L7.66675 36.9917V38.3334H9.00841L38.3334 9.00841V7.66675H36.9917V7.66675ZM15.3334 29.3251C12.2667 27.9834 10.5417 25.8751 9.77508 24.9167C10.3501 23.5751 11.8834 20.7001 15.7167 18.7834C15.5251 19.5501 15.3334 20.3167 15.3334 21.2751C15.3334 23.3834 16.2917 25.4917 17.8251 26.8334L15.3334 29.3251ZM19.5501 22.8084L17.6334 23.1917C17.6334 23.1917 17.0584 22.2334 17.0584 20.8917C17.0584 19.3584 17.8251 18.0167 17.8251 18.0167C18.7834 17.4417 20.3167 17.4417 20.3167 17.4417C20.3167 17.4417 19.3584 19.1667 19.3584 20.7001C19.1667 22.0417 19.5501 22.8084 19.5501 22.8084Z" fill="#969696"/>
</svg>
