<svg width="46" height="46" viewBox="0 0 46 46" fill="none" xmlns="http://www.w3.org/2000/svg">
<path d="M23.0001 13.4167C10.1584 13.4167 7.66675 23.1917 7.66675 23.1917C7.66675 23.1917 11.8834 31.0501 22.8084 31.0501C33.7334 31.0501 38.3334 23.3834 38.3334 23.3834C38.3334 23.3834 35.8417 13.4167 23.0001 13.4167ZM17.8251 16.2917C18.7834 15.7167 20.3167 15.7167 20.3167 15.7167C20.3167 15.7167 19.3584 17.4417 19.3584 18.7834C19.3584 20.1251 19.7417 20.8917 19.7417 20.8917L17.6334 21.2751C17.6334 21.2751 17.0584 20.3167 17.0584 18.9751C17.0584 17.4417 17.8251 16.2917 17.8251 16.2917ZM22.8084 29.1334C14.9501 29.1334 10.9251 24.7251 9.77508 23.0001C10.3501 21.6584 11.8834 18.7834 15.7167 16.8667C15.5251 17.6334 15.3334 18.4001 15.3334 19.3584C15.3334 23.5751 18.7834 27.0251 23.0001 27.0251C27.2167 27.0251 30.6667 23.5751 30.6667 19.3584C30.6667 18.4001 30.4751 17.6334 30.2834 16.8667C34.1167 18.5917 35.6501 21.6584 36.2251 23.0001C34.8834 24.7251 30.8584 29.1334 22.8084 29.1334Z" fill="#969696"/>
</svg>
