<svg width="31" height="31" viewBox="0 0 31 31" fill="none" xmlns="http://www.w3.org/2000/svg">
<path d="M18.4066 10.3334H12.5941C11.9948 10.334 11.4202 10.5724 10.9965 10.9962C10.5727 11.4199 10.3343 11.9945 10.3337 12.5938V18.4063C10.3343 19.0056 10.5727 19.5801 10.9965 20.0039C11.4202 20.4276 11.9948 20.666 12.5941 20.6667H18.4066C19.0059 20.666 19.5804 20.4276 20.0042 20.0039C20.4279 19.5801 20.6663 19.0056 20.667 18.4063V12.5938C20.6663 11.9945 20.4279 11.4199 20.0042 10.9962C19.5804 10.5724 19.0059 10.334 18.4066 10.3334ZM18.0837 18.0834H12.917V12.9167H18.0837V18.0834ZM28.417 11.625C28.7596 11.625 29.0881 11.4889 29.3303 11.2467C29.5726 11.0045 29.7087 10.6759 29.7087 10.3334C29.7087 9.99078 29.5726 9.66224 29.3303 9.42001C29.0881 9.17777 28.7596 9.04169 28.417 9.04169H25.8337V8.71877C25.833 7.77691 25.4585 6.87382 24.7925 6.20782C24.1265 5.54183 23.2234 5.16737 22.2816 5.16669H21.9587V2.58335C21.9587 2.24078 21.8226 1.91224 21.5803 1.67001C21.3381 1.42777 21.0096 1.29169 20.667 1.29169C20.3244 1.29169 19.9959 1.42777 19.7536 1.67001C19.5114 1.91224 19.3753 2.24078 19.3753 2.58335V5.16669H16.792V2.58335C16.792 2.24078 16.6559 1.91224 16.4137 1.67001C16.1714 1.42777 15.8429 1.29169 15.5003 1.29169C15.1578 1.29169 14.8292 1.42777 14.587 1.67001C14.3447 1.91224 14.2087 2.24078 14.2087 2.58335V5.16669H11.6253V2.58335C11.6253 2.24078 11.4892 1.91224 11.247 1.67001C11.0048 1.42777 10.6762 1.29169 10.3337 1.29169C9.99109 1.29169 9.66255 1.42777 9.42031 1.67001C9.17808 1.91224 9.04199 2.24078 9.04199 2.58335V5.16669H8.71907C7.77721 5.16737 6.87412 5.54183 6.20813 6.20782C5.54213 6.87382 5.16768 7.77691 5.16699 8.71877V9.04169H2.58366C2.24109 9.04169 1.91255 9.17777 1.67031 9.42001C1.42808 9.66224 1.29199 9.99078 1.29199 10.3334C1.29199 10.6759 1.42808 11.0045 1.67031 11.2467C1.91255 11.4889 2.24109 11.625 2.58366 11.625H5.16699V14.2084H2.58366C2.24109 14.2084 1.91255 14.3444 1.67031 14.5867C1.42808 14.8289 1.29199 15.1574 1.29199 15.5C1.29199 15.8426 1.42808 16.1711 1.67031 16.4134C1.91255 16.6556 2.24109 16.7917 2.58366 16.7917H5.16699V19.375H2.58366C2.24109 19.375 1.91255 19.5111 1.67031 19.7533C1.42808 19.9956 1.29199 20.3241 1.29199 20.6667C1.29199 21.0093 1.42808 21.3378 1.67031 21.58C1.91255 21.8223 2.24109 21.9584 2.58366 21.9584H5.16699V22.2813C5.16768 23.2231 5.54213 24.1262 6.20813 24.7922C6.87412 25.4582 7.77721 25.8327 8.71907 25.8334H9.04199V28.4167C9.04199 28.7593 9.17808 29.0878 9.42031 29.33C9.66255 29.5723 9.99109 29.7084 10.3337 29.7084C10.6762 29.7084 11.0048 29.5723 11.247 29.33C11.4892 29.0878 11.6253 28.7593 11.6253 28.4167V25.8334H14.2087V28.4167C14.2087 28.7593 14.3447 29.0878 14.587 29.33C14.8292 29.5723 15.1578 29.7084 15.5003 29.7084C15.8429 29.7084 16.1714 29.5723 16.4137 29.33C16.6559 29.0878 16.792 28.7593 16.792 28.4167V25.8334H19.3753V28.4167C19.3753 28.7593 19.5114 29.0878 19.7536 29.33C19.9959 29.5723 20.3244 29.7084 20.667 29.7084C21.0096 29.7084 21.3381 29.5723 21.5803 29.33C21.8226 29.0878 21.9587 28.7593 21.9587 28.4167V25.8334H22.2816C23.2234 25.8327 24.1265 25.4582 24.7925 24.7922C25.4585 24.1262 25.833 23.2231 25.8337 22.2813V21.9584H28.417C28.7596 21.9584 29.0881 21.8223 29.3303 21.58C29.5726 21.3378 29.7087 21.0093 29.7087 20.6667C29.7087 20.3241 29.5726 19.9956 29.3303 19.7533C29.0881 19.5111 28.7596 19.375 28.417 19.375H25.8337V16.7917H28.417C28.7596 16.7917 29.0881 16.6556 29.3303 16.4134C29.5726 16.1711 29.7087 15.8426 29.7087 15.5C29.7087 15.1574 29.5726 14.8289 29.3303 14.5867C29.0881 14.3444 28.7596 14.2084 28.417 14.2084H25.8337V11.625H28.417ZM23.2503 22.2813C23.25 22.5381 23.1478 22.7843 22.9662 22.9659C22.7846 23.1475 22.5384 23.2497 22.2816 23.25H8.71907C8.46225 23.2497 8.21604 23.1475 8.03444 22.9659C7.85284 22.7843 7.75067 22.5381 7.75032 22.2813V8.71877C7.75067 8.46195 7.85284 8.21574 8.03444 8.03414C8.21604 7.85254 8.46225 7.75036 8.71907 7.75002H22.2816C22.5384 7.75036 22.7846 7.85254 22.9662 8.03414C23.1478 8.21574 23.25 8.46195 23.2503 8.71877V22.2813Z" fill="white"/>
<path d="M18.4066 10.3334H12.5941C11.9948 10.334 11.4202 10.5724 10.9965 10.9962C10.5727 11.4199 10.3343 11.9945 10.3337 12.5938V18.4063C10.3343 19.0056 10.5727 19.5801 10.9965 20.0039C11.4202 20.4276 11.9948 20.666 12.5941 20.6667H18.4066C19.0059 20.666 19.5804 20.4276 20.0042 20.0039C20.4279 19.5801 20.6663 19.0056 20.667 18.4063V12.5938C20.6663 11.9945 20.4279 11.4199 20.0042 10.9962C19.5804 10.5724 19.0059 10.334 18.4066 10.3334ZM18.0837 18.0834H12.917V12.9167H18.0837V18.0834ZM28.417 11.625C28.7596 11.625 29.0881 11.4889 29.3303 11.2467C29.5726 11.0045 29.7087 10.6759 29.7087 10.3334C29.7087 9.99078 29.5726 9.66224 29.3303 9.42001C29.0881 9.17777 28.7596 9.04169 28.417 9.04169H25.8337V8.71877C25.833 7.77691 25.4585 6.87382 24.7925 6.20782C24.1265 5.54183 23.2234 5.16737 22.2816 5.16669H21.9587V2.58335C21.9587 2.24078 21.8226 1.91224 21.5803 1.67001C21.3381 1.42777 21.0096 1.29169 20.667 1.29169C20.3244 1.29169 19.9959 1.42777 19.7536 1.67001C19.5114 1.91224 19.3753 2.24078 19.3753 2.58335V5.16669H16.792V2.58335C16.792 2.24078 16.6559 1.91224 16.4137 1.67001C16.1714 1.42777 15.8429 1.29169 15.5003 1.29169C15.1578 1.29169 14.8292 1.42777 14.587 1.67001C14.3447 1.91224 14.2087 2.24078 14.2087 2.58335V5.16669H11.6253V2.58335C11.6253 2.24078 11.4892 1.91224 11.247 1.67001C11.0048 1.42777 10.6762 1.29169 10.3337 1.29169C9.99109 1.29169 9.66255 1.42777 9.42031 1.67001C9.17808 1.91224 9.04199 2.24078 9.04199 2.58335V5.16669H8.71907C7.77721 5.16737 6.87412 5.54183 6.20813 6.20782C5.54213 6.87382 5.16768 7.77691 5.16699 8.71877V9.04169H2.58366C2.24109 9.04169 1.91255 9.17777 1.67031 9.42001C1.42808 9.66224 1.29199 9.99078 1.29199 10.3334C1.29199 10.6759 1.42808 11.0045 1.67031 11.2467C1.91255 11.4889 2.24109 11.625 2.58366 11.625H5.16699V14.2084H2.58366C2.24109 14.2084 1.91255 14.3444 1.67031 14.5867C1.42808 14.8289 1.29199 15.1574 1.29199 15.5C1.29199 15.8426 1.42808 16.1711 1.67031 16.4134C1.91255 16.6556 2.24109 16.7917 2.58366 16.7917H5.16699V19.375H2.58366C2.24109 19.375 1.91255 19.5111 1.67031 19.7533C1.42808 19.9956 1.29199 20.3241 1.29199 20.6667C1.29199 21.0093 1.42808 21.3378 1.67031 21.58C1.91255 21.8223 2.24109 21.9584 2.58366 21.9584H5.16699V22.2813C5.16768 23.2231 5.54213 24.1262 6.20813 24.7922C6.87412 25.4582 7.77721 25.8327 8.71907 25.8334H9.04199V28.4167C9.04199 28.7593 9.17808 29.0878 9.42031 29.33C9.66255 29.5723 9.99109 29.7084 10.3337 29.7084C10.6762 29.7084 11.0048 29.5723 11.247 29.33C11.4892 29.0878 11.6253 28.7593 11.6253 28.4167V25.8334H14.2087V28.4167C14.2087 28.7593 14.3447 29.0878 14.587 29.33C14.8292 29.5723 15.1578 29.7084 15.5003 29.7084C15.8429 29.7084 16.1714 29.5723 16.4137 29.33C16.6559 29.0878 16.792 28.7593 16.792 28.4167V25.8334H19.3753V28.4167C19.3753 28.7593 19.5114 29.0878 19.7536 29.33C19.9959 29.5723 20.3244 29.7084 20.667 29.7084C21.0096 29.7084 21.3381 29.5723 21.5803 29.33C21.8226 29.0878 21.9587 28.7593 21.9587 28.4167V25.8334H22.2816C23.2234 25.8327 24.1265 25.4582 24.7925 24.7922C25.4585 24.1262 25.833 23.2231 25.8337 22.2813V21.9584H28.417C28.7596 21.9584 29.0881 21.8223 29.3303 21.58C29.5726 21.3378 29.7087 21.0093 29.7087 20.6667C29.7087 20.3241 29.5726 19.9956 29.3303 19.7533C29.0881 19.5111 28.7596 19.375 28.417 19.375H25.8337V16.7917H28.417C28.7596 16.7917 29.0881 16.6556 29.3303 16.4134C29.5726 16.1711 29.7087 15.8426 29.7087 15.5C29.7087 15.1574 29.5726 14.8289 29.3303 14.5867C29.0881 14.3444 28.7596 14.2084 28.417 14.2084H25.8337V11.625H28.417ZM23.2503 22.2813C23.25 22.5381 23.1478 22.7843 22.9662 22.9659C22.7846 23.1475 22.5384 23.2497 22.2816 23.25H8.71907C8.46225 23.2497 8.21604 23.1475 8.03444 22.9659C7.85284 22.7843 7.75067 22.5381 7.75032 22.2813V8.71877C7.75067 8.46195 7.85284 8.21574 8.03444 8.03414C8.21604 7.85254 8.46225 7.75036 8.71907 7.75002H22.2816C22.5384 7.75036 22.7846 7.85254 22.9662 8.03414C23.1478 8.21574 23.25 8.46195 23.2503 8.71877V22.2813Z" fill="#B787F5"/>
</svg>
