<svg width="65" height="65" viewBox="0 0 65 65" fill="none" xmlns="http://www.w3.org/2000/svg">
<path d="M48.7502 46.3125V43.3333H23.2918L24.9168 40.3542L49.8335 37.9167L54.1668 21.6667H20.8543L18.9585 13.5417H10.8335V16.25H16.7918L22.4793 39L18.9585 46.0417V50.1042C18.9585 52.2708 20.8543 54.1667 23.021 54.1667C25.1877 54.1667 27.0835 52.2708 27.0835 50.1042C27.0835 47.9375 25.1877 46.0417 23.021 46.0417H43.3335V50.1042C43.3335 52.2708 45.2293 54.1667 47.396 54.1667C49.5627 54.1667 51.4585 52.2708 51.4585 50.1042C51.4585 48.2083 50.3752 46.8542 48.7502 46.3125Z" fill="white" fill-opacity="0.85"/>
</svg>
