<svg width="52" height="52" viewBox="0 0 52 52" fill="none" xmlns="http://www.w3.org/2000/svg">
<circle cx="26" cy="26" r="26" fill="#D9D9D9" fill-opacity="0.25"/>
<path d="M32.1462 19.854H32.1582M19.4587 14.4165H31.542C34.8787 14.4165 37.5837 17.1215 37.5837 20.4582V32.5415C37.5837 35.8782 34.8787 38.5832 31.542 38.5832H19.4587C16.1219 38.5832 13.417 35.8782 13.417 32.5415V20.4582C13.417 17.1215 16.1219 14.4165 19.4587 14.4165ZM30.3337 25.7386C30.4828 26.7442 30.311 27.7713 29.8428 28.6736C29.3746 29.576 28.6337 30.3078 27.7256 30.7649C26.8175 31.2219 25.7884 31.381 24.7847 31.2195C23.781 31.058 22.8538 30.5841 22.1349 29.8652C21.4161 29.1464 20.9422 28.2191 20.7807 27.2154C20.6191 26.2117 20.7782 25.1826 21.2353 24.2745C21.6924 23.3665 22.4241 22.6256 23.3265 22.1574C24.2289 21.6892 25.2559 21.5174 26.2616 21.6665C27.2874 21.8186 28.237 22.2966 28.9703 23.0299C29.7036 23.7631 30.1815 24.7128 30.3337 25.7386Z" stroke="white" stroke-width="2" stroke-linecap="round" stroke-linejoin="round"/>
</svg>
