<svg width="65" height="65" viewBox="0 0 65 65" fill="none" xmlns="http://www.w3.org/2000/svg">
<path d="M54.1668 32.5L48.2085 28.1667L51.1877 21.6667L43.8752 21.125L43.3335 13.8125L36.8335 16.7917L32.5002 10.8333L28.1668 16.7917L21.6668 13.8125L21.1252 21.125L13.8127 21.6667L16.7918 28.1667L10.8335 32.5L16.7918 36.8333L13.8127 43.3333L21.1252 43.875L21.6668 51.1875L28.1668 48.2083L32.5002 54.1667L36.8335 48.2083L43.3335 51.1875L43.8752 43.875L51.1877 43.3333L48.2085 36.8333L54.1668 32.5ZM32.5002 46.0417C24.9168 46.0417 18.9585 40.0833 18.9585 32.5C18.9585 24.9167 24.9168 18.9583 32.5002 18.9583C40.0835 18.9583 46.0418 24.9167 46.0418 32.5C46.0418 40.0833 40.0835 46.0417 32.5002 46.0417Z" fill="#F2FF00" fill-opacity="0.81"/>
</svg>
