<svg width="52" height="52" viewBox="0 0 52 52" fill="none" xmlns="http://www.w3.org/2000/svg">
<circle cx="26" cy="26" r="26" fill="#D9D9D9" fill-opacity="0.25"/>
<path d="M41.7087 15.8748C40.4717 16.7473 39.1022 17.4146 37.6528 17.8511C36.8749 16.9566 35.841 16.3226 34.6911 16.0349C33.5411 15.7471 32.3305 15.8195 31.223 16.2422C30.1155 16.6649 29.1646 17.4176 28.4988 18.3984C27.833 19.3791 27.4844 20.5407 27.5003 21.7261V23.0177C25.2304 23.0766 22.9811 22.5731 20.9529 21.5523C18.9246 20.5314 17.1803 19.0247 15.8753 17.1665C15.8753 17.1665 10.7087 28.7915 22.3337 33.9581C19.6735 35.7638 16.5046 36.6693 13.292 36.5415C24.917 42.9998 39.1253 36.5415 39.1253 21.6873C39.1241 21.3275 39.0895 20.9686 39.022 20.6152C40.3403 19.3152 41.2706 17.6737 41.7087 15.8748Z" stroke="white" stroke-width="2" stroke-linecap="round" stroke-linejoin="round"/>
</svg>
