<svg width="65" height="65" viewBox="0 0 65 65" fill="none" xmlns="http://www.w3.org/2000/svg">
<path d="M32.229 10.8333C17.0623 10.8333 24.3748 30.6042 24.3748 30.6042C25.9998 33.3125 28.1665 32.7708 28.1665 34.6667C28.1665 36.2917 26.2707 36.8333 24.3748 37.1042C21.3957 37.1042 18.6873 36.5625 15.979 41.4375C14.354 44.4167 13.5415 54.1667 13.5415 54.1667H50.6457C50.6457 54.1667 49.8332 44.4167 48.479 41.4375C45.7707 36.2917 43.0623 37.1042 40.0832 36.8333C38.1873 36.5625 36.2915 36.0208 36.2915 34.3958C36.2915 32.7708 38.4582 33.3125 40.0832 30.3333C40.0832 30.6042 47.3957 10.8333 32.229 10.8333V10.8333Z" fill="#F0F0F0"/>
</svg>
