<svg width="52" height="52" viewBox="0 0 52 52" fill="none" xmlns="http://www.w3.org/2000/svg">
<circle cx="26" cy="26" r="26" fill="#D9D9D9" fill-opacity="0.25"/>
<path d="M40.1747 20.025C40.0263 19.4318 39.7238 18.8882 39.2981 18.4493C38.8723 18.0103 38.3382 17.6915 37.7497 17.525C35.5997 17 26.9997 17 26.9997 17C26.9997 17 18.3997 17 16.2497 17.575C15.6613 17.7415 15.1272 18.0603 14.7014 18.4993C14.2756 18.9382 13.9732 19.4818 13.8247 20.075C13.4313 22.2569 13.2388 24.4704 13.2497 26.6875C13.2357 28.9213 13.4282 31.1516 13.8247 33.35C13.9884 33.9248 14.2976 34.4477 14.7224 34.8681C15.1472 35.2885 15.6733 35.5923 16.2497 35.75C18.3997 36.325 26.9997 36.325 26.9997 36.325C26.9997 36.325 35.5997 36.325 37.7497 35.75C38.3382 35.5835 38.8723 35.2647 39.2981 34.8257C39.7238 34.3868 40.0263 33.8432 40.1747 33.25C40.5652 31.0845 40.7576 28.8879 40.7497 26.6875C40.7638 24.4537 40.5713 22.2234 40.1747 20.025Z" stroke="white" stroke-width="2" stroke-linecap="round" stroke-linejoin="round"/>
<path d="M24.1872 30.775L31.3747 26.6875L24.1872 22.6V30.775Z" stroke="white" stroke-width="2" stroke-linecap="round" stroke-linejoin="round"/>
</svg>
