<svg width="60" height="60" viewBox="0 0 60 60" fill="none" xmlns="http://www.w3.org/2000/svg">
<path d="M17.5 10H20V17.5H17.5V10Z" fill="#999999"/>
<path d="M37.5 10H40V17.5H37.5V10Z" fill="#999999"/>
<path d="M32.5 45.25C32.5 45 32.5 45 32.5 45.25L12.5 45V25H45V28C46 28.25 46.75 28.75 47.5 29.5V12.5H42.5V20H35V12.5H22.5V20H15V12.5H10V47.5H32.5V45.25Z" fill="#999999"/>
<path d="M47.5 35C47.5 37.7625 45.2625 40 42.5 40C39.7375 40 37.5 37.7625 37.5 35C37.5 32.2375 39.7375 30 42.5 30C45.2625 30 47.5 32.2375 47.5 35Z" fill="#999999"/>
<path d="M44.75 40H40.25C37.5 40 35 42.25 35 45.25V50H50V45.25C50 42.25 47.75 40 44.75 40Z" fill="#999999"/>
</svg>
