<svg width="55" height="55" viewBox="0 0 55 55" fill="none" xmlns="http://www.w3.org/2000/svg">
<path d="M44.0001 27.9033C44.0001 26.7666 43.8901 25.5933 43.7067 24.4933H27.8301V30.9833H36.9234C36.5567 33.0733 35.3467 34.9066 33.5501 36.08L38.9767 40.2966C42.1667 37.3266 44.0001 33 44.0001 27.9033Z" fill="#4280EF"/>
<path d="M27.8302 44.33C32.3769 44.33 36.1902 42.8266 38.9769 40.26L33.5502 36.08C32.0469 37.1066 30.1035 37.6933 27.8302 37.6933C23.4302 37.6933 19.7269 34.7233 18.3702 30.7633L12.7969 35.0533C15.6569 40.7366 21.4502 44.33 27.8302 44.33Z" fill="#34A353"/>
<path d="M18.3701 30.7267C17.6734 28.6367 17.6734 26.3633 18.3701 24.2733L12.7968 19.9467C10.4134 24.7133 10.4134 30.3233 12.7968 35.0533L18.3701 30.7267Z" fill="#F6B704"/>
<path d="M27.8302 17.3433C30.2135 17.3066 32.5602 18.2233 34.2835 19.8733L39.0869 15.0333C36.0435 12.1733 32.0102 10.6333 27.8302 10.67C21.4502 10.67 15.6569 14.2633 12.7969 19.9466L18.3702 24.2733C19.7269 20.2766 23.4302 17.3433 27.8302 17.3433Z" fill="#E54335"/>
</svg>
