<svg width="43" height="43" viewBox="0 0 43 43" fill="none" xmlns="http://www.w3.org/2000/svg">
<path d="M21.5003 21.5V3.58329C21.5003 3.07565 21.672 2.65013 22.0154 2.30673C22.3588 1.96333 22.7844 1.79163 23.292 1.79163C23.7996 1.79163 24.2252 1.96333 24.5686 2.30673C24.912 2.65013 25.0837 3.07565 25.0837 3.58329V21.5H21.5003ZM14.3337 21.5V5.37496C14.3337 4.86732 14.5054 4.4418 14.8488 4.0984C15.1922 3.75499 15.6177 3.58329 16.1253 3.58329C16.633 3.58329 17.0585 3.75499 17.4019 4.0984C17.7453 4.4418 17.917 4.86732 17.917 5.37496V21.5H14.3337ZM22.3962 41.2083C18.1559 41.2083 14.5576 39.7302 11.6014 36.7739C8.64512 33.8177 7.16699 30.2194 7.16699 25.9791V8.95829C7.16699 8.45065 7.33869 8.02513 7.6821 7.68173C8.0255 7.33833 8.45102 7.16663 8.95866 7.16663C9.4663 7.16663 9.89182 7.33833 10.2352 7.68173C10.5786 8.02513 10.7503 8.45065 10.7503 8.95829V25.9791C10.7503 29.234 11.8776 31.9887 14.1321 34.2432C16.3866 36.4977 19.1413 37.625 22.3962 37.625C25.651 37.625 28.4057 36.4977 30.6602 34.2432C32.9147 31.9887 34.042 29.234 34.042 25.9791V19.7083C33.5344 19.7083 33.1088 19.88 32.7654 20.2234C32.422 20.5668 32.2503 20.9923 32.2503 21.5V28.6666H26.8753C25.8899 28.6666 25.0463 29.0175 24.3446 29.7192C23.6429 30.421 23.292 31.2645 23.292 32.25V34.0416H19.7087V32.25C19.7087 30.2791 20.4104 28.592 21.8139 27.1885C23.2173 25.785 24.9045 25.0833 26.8753 25.0833H28.667V7.16663C28.667 6.65899 28.8387 6.23347 29.1821 5.89006C29.5255 5.54666 29.951 5.37496 30.4587 5.37496C30.9663 5.37496 31.3918 5.54666 31.7352 5.89006C32.0786 6.23347 32.2503 6.65899 32.2503 7.16663V16.4385C32.5489 16.3489 32.8401 16.2743 33.1238 16.2145C33.4074 16.1548 33.7135 16.125 34.042 16.125H37.6253V25.9791C37.6253 30.2194 36.1472 33.8177 33.191 36.7739C30.2347 39.7302 26.6364 41.2083 22.3962 41.2083Z" fill="#1D1B20"/>
</svg>
