<svg width="56" height="56" viewBox="0 0 56 56" fill="none" xmlns="http://www.w3.org/2000/svg">
<path d="M37.3333 25.6666V18.4333C37.3333 13.3 33.5999 9.33331 28.4666 9.33331H27.7666C22.8666 9.33331 18.6666 13.3 18.6666 18.4333V25.6666H16.3333L16.5666 37.3333C16.5666 37.3333 16.3333 44.3333 27.9999 44.3333C39.6666 44.3333 39.6666 37.3333 39.6666 37.3333V25.6666H37.3333ZM30.3333 39.6666H27.9999V35C26.5999 35 25.6666 34.0666 25.6666 32.6666C25.6666 31.2666 26.5999 30.3333 27.9999 30.3333C29.3999 30.3333 30.3333 31.2666 30.3333 32.6666V39.6666ZM32.6666 25.6666H23.3333V18.4333C23.3333 15.8666 25.4333 14 27.7666 14H28.4666C30.7999 14 32.6666 15.8666 32.6666 18.4333V25.6666Z" fill="#3294FF" fill-opacity="0.15"/>
</svg>
