<svg width="56" height="56" viewBox="0 0 56 56" fill="none" xmlns="http://www.w3.org/2000/svg">
<path d="M27.7667 9.33331C14.7001 9.33331 21.0001 26.3666 21.0001 26.3666C22.4001 28.7 24.2667 28.2333 24.2667 29.8666C24.2667 31.2666 22.6334 31.7333 21.0001 31.9666C18.4334 31.9666 16.1001 31.5 13.7667 35.7C12.3667 38.2666 11.6667 46.6666 11.6667 46.6666H43.6334C43.6334 46.6666 42.9334 38.2666 41.7667 35.7C39.4334 31.2666 37.1001 31.9666 34.5334 31.7333C32.9001 31.5 31.2667 31.0333 31.2667 29.6333C31.2667 28.2333 33.1334 28.7 34.5334 26.1333C34.5334 26.3666 40.8334 9.33331 27.7667 9.33331V9.33331Z" fill="#3696FF" fill-opacity="0.16"/>
</svg>
