<svg width="440" height="440" viewBox="0 0 440 440" fill="none" xmlns="http://www.w3.org/2000/svg">
<circle cx="220" cy="220" r="220" fill="#D9D9D9"/>
<path d="M218.217 71.3333C118.35 71.3333 166.5 201.517 166.5 201.517C177.2 219.35 191.467 215.783 191.467 228.267C191.467 238.967 178.984 242.533 166.5 244.317C146.884 244.317 129.05 240.75 111.217 272.85C100.517 292.467 95.167 356.667 95.167 356.667H339.484C339.484 356.667 334.134 292.467 325.217 272.85C307.384 238.967 289.55 244.317 269.934 242.533C257.45 240.75 244.967 237.183 244.967 226.483C244.967 215.783 259.234 219.35 269.934 199.733C269.934 201.517 318.084 71.3333 218.217 71.3333V71.3333Z" fill="#1C2E45" fill-opacity="0.6"/>
</svg>
